<svg xmlns="http://www.w3.org/2000/svg" width="18" height="12">
    <path fill="#FFF" fill-rule="evenodd" d="M12.068 1.247h4.301v1.08h-4.301v-1.08zM18 7.641h-5.599c.059 1.335.72 1.826 1.905 1.826.857 0 1.548-.268 1.683-.743h1.707c-.599 1.809-1.707 2.33-3.464 2.33-2.447 0-3.963-1.66-3.963-4.033 0-2.299 1.607-4.048 3.963-4.048 2.641 0 3.918 2.311 3.768 4.668zm-5.599-1.567h3.468c-.196-1.068-.662-1.514-1.698-1.514-1.35 0-1.741.921-1.77 1.514zM9.709 7.776c0 2.151-1.847 3.071-3.784 3.071H.731V.192h5.046c2.041 0 3.422.719 3.422 2.691 0 1.04-.526 1.765-1.457 2.21 1.307.371 1.967 1.364 1.967 2.683zM5.093 1.984H2.887V4.46h2.386c.825 0 1.441-.37 1.441-1.259 0-1.008-.781-1.217-1.621-1.217zm.36 4.063H2.887v2.907h2.521c.931 0 1.741-.296 1.741-1.394 0-1.083-.69-1.513-1.696-1.513z"/>
</svg>
