<svg xmlns="http://www.w3.org/2000/svg" width="19" height="17">
    <path fill="#FFF" fill-rule="evenodd" d="M17.928 6.783a8.37 8.37 0 0 0-1.299-3.036 8.636 8.636 0 0 0-2.33-2.29A8.639 8.639 0 0 0 11.21.18a8.779 8.779 0 0 0-3.477 0 8.668 8.668 0 0 0-5.419 3.567 8.37 8.37 0 0 0 0 9.488 8.658 8.658 0 0 0 7.158 3.739c.585 0 1.17-.057 1.738-.173a8.705 8.705 0 0 0 3.089-1.276 8.575 8.575 0 0 0 2.33-2.29 8.378 8.378 0 0 0 1.475-4.745 8.34 8.34 0 0 0-.176-1.707zm-1.086 1.636c-.107-.024-2.602-.551-5.135-.238a22.834 22.834 0 0 0-.649-1.425c2.911-1.168 4.093-2.848 4.107-2.868a7.143 7.143 0 0 1 1.677 4.531zm-2.501-5.366c-.018.029-1.068 1.599-3.851 2.623A36.882 36.882 0 0 0 7.735 1.45a7.522 7.522 0 0 1 1.737-.204c1.867 0 3.57.683 4.869 1.807zM7.706 1.456l-.001.001-.022.005a.745.745 0 0 1 .023-.006zm-1.379.482a43.739 43.739 0 0 1 2.737 4.175c-3.54.923-6.612.888-6.806.885.479-2.245 2.013-4.105 4.069-5.06zM2.1 8.49c0-.077.003-.153.006-.229.13.003 3.773.084 7.568-1.032.212.406.414.82.599 1.231a6.981 6.981 0 0 0-.291.087c-3.978 1.264-5.996 4.782-5.996 4.782l.003.003A7.15 7.15 0 0 1 2.1 8.49zm7.372 7.245a7.42 7.42 0 0 1-4.696-1.66c.097.078.165.127.165.127s1.413-3.029 5.785-4.526a.458.458 0 0 1 .049-.015c1.038 2.649 1.466 4.867 1.575 5.501a7.457 7.457 0 0 1-2.878.573zm4.119-1.235c-.075-.438-.468-2.564-1.435-5.175 2.38-.374 4.442.267 4.595.316a7.237 7.237 0 0 1-3.16 4.859z"/>
</svg>
