<?xml version="1.0"?>
<svg xmlns="http://www.w3.org/2000/svg" xmlns:xlink="http://www.w3.org/1999/xlink" version="1.1" viewBox="0 0 192 192" width="24px" height="24px"><g fill="none" fill-rule="nonzero" stroke="none" stroke-width="1" stroke-linecap="butt" stroke-linejoin="miter" stroke-miterlimit="10" stroke-dasharray="" stroke-dashoffset="0" font-family="none" font-weight="none" font-size="none" text-anchor="none" style="mix-blend-mode: normal"><path d="M0,192v-192h192v192z" fill="#dddddd"/><g fill="#ffffff"><g id="surface1"><path d="M192,34.40625c-7.1875,3.1875 -14.40625,5.59375 -22.40625,6.40626c8,-4.8125 14.40625,-12.8125 17.59375,-21.625c-8,4.8125 -16,8 -24.78126,9.625c-8,-8 -18.40625,-12.8125 -29.59374,-12.8125c-21.625,0 -39.21875,17.59375 -39.21875,39.1875c0,3.21874 0,6.40625 0.8125,8.8125c-32.8125,-1.59375 -61.59374,-16.8125 -80.8125,-40.8125c-4,5.625 -5.59375,12.8125 -5.59375,20c0,13.625 7.1875,25.625 17.59375,32.8125c-6.40625,-0.8125 -12.78125,-2.40625 -17.59375,-4.8125c0,0 0,0 0,0.8125c0,19.1875 13.59375,35.1875 31.1875,38.40625c-3.1875,0.78126 -6.375,1.59375 -10.375,1.59375c-2.40626,0 -4.8125,0 -7.21875,-0.8125c4.8125,16 19.21875,27.21874 36.8125,27.21874c-13.59374,10.40626 -30.40625,16.78126 -48.8125,16.78126c-3.1875,0 -6.40625,0 -9.59375,-0.78126c17.59375,11.1875 38.40625,17.59375 60,17.59375c72.8125,0 112,-60 112,-112c0,-1.59375 0,-3.1875 0,-4.8125c8,-5.59375 14.40625,-12.78126 20,-20.78126"/></g></g></g></svg>
