<svg xmlns="http://www.w3.org/2000/svg" width="12" height="13">
    <defs>
        <filter id="a">
            <feFlood flood-color="#FFF" flood-opacity="1" result="floodOut"/>
            <feComposite in="floodOut" in2="SourceGraphic" operator="atop" result="compOut"/>
            <feBlend in="compOut" in2="SourceGraphic"/>
        </filter>
    </defs>
    <path fill="#FFF" fill-rule="evenodd" d="M11.617 8.313L4.434 1.201S5.498.664 5.829.992l5.986 5.927c.331.327-.198 1.394-.198 1.394zM5.835 6.166a.848.848 0 0 1-1.196.008L1.446 3.013a.844.844 0 0 1-.002-1.194.846.846 0 0 1 1.196-.008l3.193 3.16a.845.845 0 0 1 .002 1.195zm.804 5.963L.652 6.202C.322 5.875.85 4.807.85 4.807l7.184 7.113s-1.065.536-1.395.209zm-.006-5.173a.847.847 0 0 1 1.196-.009l3.192 3.161a.843.843 0 0 1 .002 1.194.846.846 0 0 1-1.196.008L6.634 8.149a.842.842 0 0 1-.001-1.193z" filter="url(#a)"/>
</svg>
