<svg xmlns="http://www.w3.org/2000/svg" width="15" height="17">
    <path fill="#FFF" fill-rule="evenodd" d="M6.314 11.044c-.141.553-.283 1.132-.43 1.697-.145.558-.272 1.125-.484 1.637-.35.85-.794 1.67-1.378 2.334-.387.442-.305.265-.422.242-.089-.018-.096-.104-.114-.228-.095-.676-.03-1.455.005-2.214.04-.864.225-1.582.397-2.3.327-1.368.638-2.709.968-4.085.022-.091.081-.243.06-.295a4.212 4.212 0 0 1-.289-1.127 3.54 3.54 0 0 1 .094-1.288c.187-.701.616-1.323 1.278-1.549.42-.144.886-.079 1.169.087.292.171.492.442.585.825.1.409.026.896-.054 1.254-.18.808-.417 1.414-.632 2.194-.106.386-.227.783-.127 1.2.091.384.294.648.571.845.287.206.627.318 1.096.302.828-.028 1.403-.548 1.788-1.039.615-.785.988-1.845 1.129-3.106.046-.406.079-.874.047-1.334-.059-.852-.33-1.536-.76-2.066a3.563 3.563 0 0 0-1.693-1.134c-.7-.224-1.668-.298-2.528-.154-1.562.263-2.665 1.136-3.314 2.341a4.63 4.63 0 0 0-.565 2.26c0 .696.175 1.237.458 1.656.089.134.221.244.309.396.124.216-.019.538-.081.772-.074.282-.082.671-.417.677-.138.003-.312-.097-.43-.161-.88-.478-1.414-1.347-1.633-2.475a5.815 5.815 0 0 1 0-2.145 6.03 6.03 0 0 1 .632-1.711A6.164 6.164 0 0 1 3.881.991C4.634.554 5.483.247 6.516.099 6.859.05 7.214.03 7.598.012a6.591 6.591 0 0 1 2.918.536 5.971 5.971 0 0 1 2.01 1.422 5.367 5.367 0 0 1 1.237 2.193c.135.459.268.95.268 1.516 0 .568-.123 1.069-.208 1.569-.32 1.875-1.227 3.408-2.588 4.279-.33.212-.729.407-1.183.537-.45.129-.963.226-1.513.188a3.153 3.153 0 0 1-1.337-.382c-.364-.202-.671-.45-.888-.826z"/>
</svg>
