<svg xmlns="http://www.w3.org/2000/svg" width="18" height="15">
    <path fill-rule="evenodd" d="M11.954.472c1.372-.023 2.102.467 2.799 1.093.592-.051 1.362-.376 1.815-.602l.441-.237c-.259.687-.61 1.225-1.15 1.634-.119.09-.238.213-.388.271v.008c.768-.007 1.402-.348 2.004-.533v.009c-.316.493-.744.995-1.201 1.354l-.553.432c.01.8-.012 1.563-.164 2.235-.885 3.906-3.228 6.559-6.938 7.696-1.333.407-3.486.575-5.012.202-.757-.184-1.441-.392-2.082-.668a8.328 8.328 0 0 1-1.003-.508l-.311-.187c.345.01.747.104 1.132.043.349-.056.69-.041 1.011-.11.801-.173 1.513-.402 2.126-.754.297-.171.748-.371.959-.618a3.062 3.062 0 0 1-1.054-.186c-1.146-.398-1.813-1.128-2.247-2.226.347.036 1.347.126 1.581-.069-.437-.023-.857-.272-1.157-.457C1.64 7.728.888 6.777.894 5.315l.363.169c.231.095.467.147.743.203.117.024.35.091.484.042h-.018c-.178-.204-.468-.339-.648-.558-.591-.723-1.145-1.835-.794-3.158.088-.336.229-.632.38-.906l.017.008c.069.142.222.246.32.364.302.368.674.699 1.054.991 1.293.994 2.458 1.605 4.329 2.057a6.874 6.874 0 0 0 1.59.203c-.16-.455-.108-1.193.017-1.634.315-1.109 1-1.908 2.005-2.336.24-.102.506-.177.786-.237l.432-.051z"/>
</svg>
